<?xml version="1.0" encoding="utf-8"?>
<!DOCTYPE svg PUBLIC "-//W3C//DTD SVG 1.1//EN" "http://www.w3.org/Graphics/SVG/1.1/DTD/svg11.dtd">
<svg xmlns="http://www.w3.org/2000/svg" xmlns:xlink="http://www.w3.org/1999/xlink" version="1.1" baseProfile="full" width="48" height="48" viewBox="0 0 48.00 48.00" enable-background="new 0 0 48.00 48.00" xml:space="preserve">
	<path fill="none" stroke-width="2" stroke-linejoin="miter" stroke="#000000" stroke-opacity="1" d="M 34.1796,12.9879C 34.1796,12.9879 33.3329,10.841 32.1091,9.35504C 30.8854,7.86911 31.1312,7.60141 29.2956,6.46512C 27.4599,5.32883 24.5975,4.27446 22.9367,4.18706C 21.2759,4.09965 18.6047,4.36187 17.6431,4.7115C 16.6816,5.06113 14.8898,5.85873 14.0157,6.38318C 13.1416,6.90763 12.355,7.60689 12.0053,7.86911C 11.6557,8.13134 9.92391,10.3985 9.92391,10.3985"/>
	<path fill="none" stroke-width="2" stroke-linejoin="round" stroke="#000000" stroke-opacity="1" d="M 32.6454,10.166L 33.3328,9.79208C 33.9829,9.4643 35.732,8.35756 37.1787,8.13134C 38.5063,7.92374 41.0247,8.13134 41.9862,8.48097C 42.9477,8.8306 44.5211,9.52986 45.1329,10.2291C 45.7447,10.9284 46.5314,11.6276 46.881,12.8513C 47.2306,14.0751 47.2416,14.5285 47.1268,15.5118C 47.0423,16.2357 46.6189,17.2053 46.3566,17.6424C 46.0943,18.0794 45.3568,19.2485 45.3568,19.2485C 45.761,18.735 46.821,18.1941 47.2579,18.806C 47.6949,19.4178 47.4055,20.9803 47.318,21.6795C 47.2306,22.3788 46.657,24.7279 45.7829,25.6893C 44.9089,26.6508 44.8322,27.0319 43.1224,28.0603C 41.6693,28.9344 40.7461,29.1146 39.6699,29.2785C 38.9298,29.3912 38.2931,29.5244 37.4409,29.3714C 36.1883,29.1466 35.7802,28.6721 34.9061,28.2351C 34.032,27.7981 34.5893,28.0821 33.0705,27.1862C 31.3373,26.1638 31.3552,25.9788 31.3552,25.9788"/>
	<path fill="none" stroke-width="2" stroke-linejoin="round" stroke="#000000" stroke-opacity="1" d="M 35.518,23.3403C 35.518,23.3403 34.8189,23.8647 33.158,24.9136C 31.4972,25.9625 29.8425,27.1259 27.9135,27.5358C 26.3456,27.8691 25.9527,27.9124 23.33,27.9838C 20.9208,28.0493 19.3639,28.0002 18.3861,27.6232C 17.0685,27.1153 16.2678,26.9915 14.8897,26.0007C 13.7425,25.1758 13.4339,24.8747 12.7046,23.9521C 12.2511,23.3785 11.8086,22.5099 11.3935,21.1551C 11.1022,20.2044 11.0383,19.7893 11.0383,19.7893"/>
	<path fill="none" stroke-width="2" stroke-linejoin="round" stroke="#000000" stroke-opacity="1" d="M 12.4546,23.7347C 12.4546,23.7347 12.0054,24.2635 10.8691,24.2635C 9.73272,24.2635 7.08866,24.1815 6.23647,23.8374C 5.18288,23.4119 3.7017,22.5153 3.00236,21.7287C 2.30308,20.942 1.86602,20.1553 1.34159,18.3198C 0.781022,16.3577 0.913796,15.4919 1.25417,14.1242C 1.54919,12.9387 2.22119,12.0046 2.74008,11.4146C 3.47483,10.5792 4.71227,9.85762 5.82674,9.46428C 7.20829,8.97669 8.66466,8.65086 9.35027,8.51373C 10.0878,8.36622 11.8133,8.12058 11.8133,8.12058"/>
	<path fill="none" stroke-width="2" stroke-linejoin="round" stroke="#000000" stroke-opacity="1" d="M 10.2196,24.3066C 10.2196,24.3066 10.6785,25.2899 10.744,26.2733C 10.8095,27.2566 10.7111,27.6062 10.4817,28.83C 10.1798,30.4408 9.36734,32.4355 8.9084,33.6811C 8.44953,34.9266 8.05635,35.91 7.72845,36.6311C 7.40062,37.3522 7.33513,38.0733 7.46617,38.27C 7.59728,38.4667 8.48221,37.8876 8.76089,37.7182C 9.19843,37.4523 10.1614,36.5207 11.924,36.3033C 12.8846,36.1848 13.7629,36.3221 15.0051,36.4344C 15.972,36.5218 18.496,37.0791 19.9381,37.4068C 21.3804,37.7346 22.6095,38.2263 23.855,38.7289C 25.3242,39.3217 26.246,39.6232 28.3129,40.6955C 30.3451,41.7499 31.0663,42.2689 32.5085,43.1867C 33.9507,44.1044 34.2744,44.7394 34.7374,44.76C 35.229,44.7819 35.1308,44.6289 35.2618,43.9078C 35.3929,43.1867 35.4912,42.5857 35.4748,41.3238C 35.4561,39.8817 35.8349,38.4884 36.1796,36.3689C 36.4746,34.5552 36.9499,32.8343 37.1301,31.9165C 37.3385,30.8556 37.5398,29.2943 37.5398,29.2943"/>
</svg>
